<svg xmlns="http://www.w3.org/2000/svg" width="10.862" height="7.244" viewBox="0 0 10.862 7.244">
  <path id="Icon_ionic-ios-arrow-round-forward" data-name="Icon ionic-ios-arrow-round-forward" d="M14.8,11.39a.493.493,0,0,0,0,.694l2.294,2.3H8.362a.49.49,0,0,0,0,.981h8.726l-2.294,2.3a.5.5,0,0,0,0,.694.488.488,0,0,0,.69,0L18.6,15.22h0a.551.551,0,0,0,.1-.155.468.468,0,0,0,.038-.189.492.492,0,0,0-.14-.343L15.488,11.4A.481.481,0,0,0,14.8,11.39Z" transform="translate(-7.875 -11.252)" fill="#323846"/>
</svg>
