<svg width="23" height="15" viewBox="0 0 23 15" fill="none" xmlns="http://www.w3.org/2000/svg">
<path d="M7.82734 2.58133L3.88344 6.51562L21.5668 6.53719C22.1128 6.53786 22.5497 6.97582 22.5491 7.52187C22.5484 8.06792 22.1104 8.50481 21.5644 8.50415L3.88104 8.48257L7.81533 12.4265C8.0039 12.6155 8.10585 12.8701 8.10554 13.1192C8.10523 13.3734 8.01028 13.6221 7.81297 13.812C7.42655 14.1967 6.80747 14.1958 6.42226 13.8096L0.814125 8.18777C0.632763 8.00596 0.523596 7.75165 0.52391 7.495C0.524229 7.23342 0.626347 6.98502 0.816495 6.80226L6.43765 1.1948C6.82402 0.809371 7.4436 0.810127 7.82903 1.1965C8.20792 1.57631 8.20716 2.20244 7.82734 2.58133Z" fill="#323846" stroke="#323846" stroke-width="0.2"/>
</svg>
