<svg width="11" height="8" viewBox="0 0 11 8" fill="none" xmlns="http://www.w3.org/2000/svg">
<g clip-path="url(#clip0_514_111)">
<path d="M6.92459 0.137928C6.83312 0.23025 6.78179 0.354961 6.78179 0.484928C6.78179 0.614896 6.83312 0.739606 6.92459 0.831928L9.21859 3.13193H0.486594C0.356506 3.13193 0.231745 3.18361 0.139758 3.27559C0.0477715 3.36758 -0.00390625 3.49234 -0.00390625 3.62243C-0.00390625 3.75252 0.0477715 3.87728 0.139758 3.96926C0.231745 4.06125 0.356506 4.11293 0.486594 4.11293H9.21259L6.91859 6.41293C6.82877 6.50611 6.77858 6.6305 6.77858 6.75993C6.77858 6.88936 6.82877 7.01374 6.91859 7.10693C7.01011 7.1984 7.1342 7.24979 7.26359 7.24979C7.39299 7.24979 7.51708 7.1984 7.60859 7.10693L10.7246 3.96793C10.7664 3.92225 10.8002 3.86985 10.8246 3.81293C10.8502 3.75325 10.8632 3.68888 10.8626 3.62393C10.8624 3.49572 10.8122 3.37265 10.7226 3.28093L7.61259 0.147928C7.56846 0.101431 7.51549 0.0642246 7.45677 0.0384944C7.39806 0.0127642 7.3348 -0.000970677 7.2707 -0.00190232C7.2066 -0.00283396 7.14296 0.00905602 7.08353 0.0330689C7.02409 0.0570818 6.97006 0.0927338 6.92459 0.137928V0.137928Z" fill="white"/>
</g>
<defs>
<clipPath id="clip0_514_111">
<rect width="10.862" height="7.244" fill="white"/>
</clipPath>
</defs>
</svg>
