<svg width="14" height="10" viewBox="0 0 14 10" fill="none" xmlns="http://www.w3.org/2000/svg">
<path d="M9.27585 1.98649L11.6391 4.34395L0.841425 4.35712C0.483922 4.35756 0.19768 4.6445 0.198116 5.002C0.198552 5.35951 0.485493 5.64575 0.842997 5.64531L11.6406 5.63214L9.28319 7.99535C9.1599 8.11894 9.09304 8.28548 9.09324 8.44918C9.09344 8.61532 9.15561 8.77859 9.28496 8.9032C9.53797 9.15489 9.94338 9.15417 10.1955 8.90143L13.6493 5.43919C13.7679 5.32031 13.8395 5.15402 13.8393 4.98536C13.839 4.81429 13.7722 4.65134 13.6475 4.53134L10.186 1.0782C9.93299 0.825848 9.5271 0.826343 9.27475 1.07931C9.02642 1.32824 9.02692 1.73817 9.27585 1.98649Z" fill="white" stroke="white" stroke-width="0.2"/>
</svg>
