<svg id="instagram-logo" xmlns="http://www.w3.org/2000/svg" width="20.018" height="20.018" viewBox="0 0 20.018 20.018">
  <path id="Path_96" data-name="Path 96" d="M14.494,0H5.524A5.531,5.531,0,0,0,0,5.524v8.97a5.53,5.53,0,0,0,5.524,5.524h8.97a5.531,5.531,0,0,0,5.524-5.524V5.524A5.531,5.531,0,0,0,14.494,0Zm3.748,14.494a3.752,3.752,0,0,1-3.748,3.748H5.524a3.752,3.752,0,0,1-3.748-3.748V5.524A3.752,3.752,0,0,1,5.524,1.776h8.97a3.753,3.753,0,0,1,3.748,3.748v8.97Z" fill="#292929"/>
  <path id="Path_97" data-name="Path 97" d="M46.126,40.97a5.158,5.158,0,1,0,5.158,5.158A5.164,5.164,0,0,0,46.126,40.97Zm0,8.54a3.382,3.382,0,1,1,3.382-3.382A3.386,3.386,0,0,1,46.126,49.51Z" transform="translate(-36.117 -36.119)" fill="#292929"/>
  <path id="Path_98" data-name="Path 98" d="M120.223,28.251a1.3,1.3,0,1,0,.921.381A1.308,1.308,0,0,0,120.223,28.251Z" transform="translate(-104.84 -24.906)" fill="#292929"/>
</svg>
