<svg width="14" height="16" viewBox="0 0 14 16" fill="none" xmlns="http://www.w3.org/2000/svg">
<path fill-rule="evenodd" clip-rule="evenodd" d="M6.83694 1.58087C5.50925 1.58087 4.23593 2.10829 3.29711 3.04711C2.35829 3.98593 1.83087 5.25925 1.83087 6.58694C1.83087 8.52344 3.09483 10.4239 4.51251 11.9203C5.20518 12.6515 5.90055 13.2506 6.42362 13.6671C6.57865 13.7905 6.71799 13.8975 6.83694 13.9867C6.9559 13.8975 7.09523 13.7905 7.25027 13.6671C7.77334 13.2506 8.46871 12.6515 9.16138 11.9203C10.5791 10.4239 11.843 8.52344 11.843 6.58694C11.843 5.25925 11.3156 3.98593 10.3768 3.04711C9.43795 2.10829 8.16464 1.58087 6.83694 1.58087ZM6.83694 14.9597C6.39849 15.6174 6.3983 15.6172 6.39808 15.6171L6.39604 15.6157L6.39149 15.6127L6.3762 15.6023C6.3633 15.5936 6.34505 15.5811 6.3218 15.565C6.27531 15.5328 6.20878 15.4861 6.12508 15.4256C5.95777 15.3048 5.72137 15.1287 5.43886 14.9038C4.87509 14.4548 4.12132 13.8061 3.36487 13.0076C1.8843 11.4447 0.25 9.15885 0.25 6.58694C0.25 4.83998 0.94398 3.16456 2.17927 1.92927C3.41456 0.69398 5.08998 0 6.83694 0C8.58391 0 10.2593 0.69398 11.4946 1.92927C12.7299 3.16456 13.4239 4.83998 13.4239 6.58694C13.4239 9.15885 11.7896 11.4447 10.309 13.0076C9.55257 13.8061 8.7988 14.4548 8.23503 14.9038C7.95252 15.1287 7.71612 15.3048 7.5488 15.4256C7.46511 15.4861 7.39858 15.5328 7.35209 15.565C7.32884 15.5811 7.31059 15.5936 7.29769 15.6023L7.2824 15.6127L7.27784 15.6157L7.27636 15.6167C7.27614 15.6169 7.2754 15.6174 6.83694 14.9597ZM6.83694 14.9597L7.2754 15.6174C7.00989 15.7944 6.66358 15.7941 6.39808 15.6171L6.83694 14.9597Z" fill="#F14A4A"/>
<path fill-rule="evenodd" clip-rule="evenodd" d="M6.83686 5.44537C6.2063 5.44537 5.69512 5.95654 5.69512 6.58711C5.69512 7.21767 6.2063 7.72884 6.83686 7.72884C7.46743 7.72884 7.9786 7.21767 7.9786 6.58711C7.9786 5.95654 7.46743 5.44537 6.83686 5.44537ZM4.11426 6.58711C4.11426 5.08345 5.33321 3.8645 6.83686 3.8645C8.34051 3.8645 9.55946 5.08345 9.55946 6.58711C9.55946 8.09076 8.34051 9.30971 6.83686 9.30971C5.33321 9.30971 4.11426 8.09076 4.11426 6.58711Z" fill="#F14A4A"/>
</svg>
