<svg width="100" height="40" viewBox="0 0 100 40" fill="none" xmlns="http://www.w3.org/2000/svg">
<rect width="100" height="40" fill="#F5F5F5"/>
<path d="M14.4102 23H13.6822L10.7542 18.56V23H10.0262V17.416H10.7542L13.6822 21.848V17.416H14.4102V23ZM17.5632 23.072C17.1525 23.072 16.7792 22.9787 16.4432 22.792C16.1125 22.6053 15.8512 22.3413 15.6592 22C15.4725 21.6533 15.3792 21.2533 15.3792 20.8C15.3792 20.352 15.4752 19.9573 15.6672 19.616C15.8645 19.2693 16.1312 19.0053 16.4672 18.824C16.8032 18.6373 17.1792 18.544 17.5952 18.544C18.0112 18.544 18.3872 18.6373 18.7232 18.824C19.0592 19.0053 19.3232 19.2667 19.5152 19.608C19.7125 19.9493 19.8112 20.3467 19.8112 20.8C19.8112 21.2533 19.7098 21.6533 19.5072 22C19.3098 22.3413 19.0405 22.6053 18.6992 22.792C18.3578 22.9787 17.9792 23.072 17.5632 23.072ZM17.5632 22.456C17.8245 22.456 18.0698 22.3947 18.2992 22.272C18.5285 22.144 18.7125 21.9547 18.8512 21.704C18.9952 21.4533 19.0672 21.152 19.0672 20.8C19.0672 20.448 18.9978 20.1493 18.8592 19.904C18.7205 19.6533 18.5392 19.4667 18.3152 19.344C18.0912 19.2213 17.8485 19.16 17.5872 19.16C17.3205 19.16 17.0752 19.2213 16.8512 19.344C16.6325 19.4667 16.4565 19.6533 16.3232 19.904C16.1898 20.1493 16.1232 20.448 16.1232 20.8C16.1232 21.1573 16.1872 21.4613 16.3152 21.712C16.4485 21.9573 16.6245 22.144 16.8432 22.272C17.0618 22.3947 17.3018 22.456 17.5632 22.456ZM23.8792 22.44H25.8312V23H23.1512V17.424H23.8792V22.44ZM28.5163 23.072C28.1056 23.072 27.7323 22.9787 27.3963 22.792C27.0656 22.6053 26.8043 22.3413 26.6123 22C26.4256 21.6533 26.3323 21.2533 26.3323 20.8C26.3323 20.352 26.4283 19.9573 26.6203 19.616C26.8176 19.2693 27.0843 19.0053 27.4203 18.824C27.7563 18.6373 28.1323 18.544 28.5483 18.544C28.9643 18.544 29.3403 18.6373 29.6763 18.824C30.0123 19.0053 30.2763 19.2667 30.4683 19.608C30.6656 19.9493 30.7643 20.3467 30.7643 20.8C30.7643 21.2533 30.6629 21.6533 30.4603 22C30.2629 22.3413 29.9936 22.6053 29.6523 22.792C29.3109 22.9787 28.9323 23.072 28.5163 23.072ZM28.5163 22.456C28.7776 22.456 29.0229 22.3947 29.2523 22.272C29.4816 22.144 29.6656 21.9547 29.8043 21.704C29.9483 21.4533 30.0203 21.152 30.0203 20.8C30.0203 20.448 29.9509 20.1493 29.8123 19.904C29.6736 19.6533 29.4923 19.4667 29.2683 19.344C29.0443 19.2213 28.8016 19.16 28.5403 19.16C28.2736 19.16 28.0283 19.2213 27.8043 19.344C27.5856 19.4667 27.4096 19.6533 27.2763 19.904C27.1429 20.1493 27.0763 20.448 27.0763 20.8C27.0763 21.1573 27.1403 21.4613 27.2683 21.712C27.4016 21.9573 27.5776 22.144 27.7963 22.272C28.0149 22.3947 28.2549 22.456 28.5163 22.456ZM33.5295 18.544C33.9081 18.544 34.2388 18.6267 34.5215 18.792C34.8095 18.9573 35.0228 19.1653 35.1615 19.416V18.616H35.8975V23.096C35.8975 23.496 35.8121 23.8507 35.6415 24.16C35.4708 24.4747 35.2255 24.72 34.9055 24.896C34.5908 25.072 34.2228 25.16 33.8015 25.16C33.2255 25.16 32.7455 25.024 32.3615 24.752C31.9775 24.48 31.7508 24.1093 31.6815 23.64H32.4015C32.4815 23.9067 32.6468 24.12 32.8975 24.28C33.1481 24.4453 33.4495 24.528 33.8015 24.528C34.2015 24.528 34.5268 24.4027 34.7775 24.152C35.0335 23.9013 35.1615 23.5493 35.1615 23.096V22.176C35.0175 22.432 34.8041 22.6453 34.5215 22.816C34.2388 22.9867 33.9081 23.072 33.5295 23.072C33.1401 23.072 32.7855 22.976 32.4655 22.784C32.1508 22.592 31.9028 22.3227 31.7215 21.976C31.5401 21.6293 31.4495 21.2347 31.4495 20.792C31.4495 20.344 31.5401 19.952 31.7215 19.616C31.9028 19.2747 32.1508 19.0107 32.4655 18.824C32.7855 18.6373 33.1401 18.544 33.5295 18.544ZM35.1615 20.8C35.1615 20.4693 35.0948 20.1813 34.9615 19.936C34.8281 19.6907 34.6468 19.504 34.4175 19.376C34.1935 19.2427 33.9455 19.176 33.6735 19.176C33.4015 19.176 33.1535 19.24 32.9295 19.368C32.7055 19.496 32.5268 19.6827 32.3935 19.928C32.2601 20.1733 32.1935 20.4613 32.1935 20.792C32.1935 21.128 32.2601 21.4213 32.3935 21.672C32.5268 21.9173 32.7055 22.1067 32.9295 22.24C33.1535 22.368 33.4015 22.432 33.6735 22.432C33.9455 22.432 34.1935 22.368 34.4175 22.24C34.6468 22.1067 34.8281 21.9173 34.9615 21.672C35.0948 21.4213 35.1615 21.1307 35.1615 20.8ZM39.0397 23.072C38.6291 23.072 38.2557 22.9787 37.9197 22.792C37.5891 22.6053 37.3277 22.3413 37.1357 22C36.9491 21.6533 36.8557 21.2533 36.8557 20.8C36.8557 20.352 36.9517 19.9573 37.1437 19.616C37.3411 19.2693 37.6077 19.0053 37.9437 18.824C38.2797 18.6373 38.6557 18.544 39.0717 18.544C39.4877 18.544 39.8637 18.6373 40.1997 18.824C40.5357 19.0053 40.7997 19.2667 40.9917 19.608C41.1891 19.9493 41.2877 20.3467 41.2877 20.8C41.2877 21.2533 41.1864 21.6533 40.9837 22C40.7864 22.3413 40.5171 22.6053 40.1757 22.792C39.8344 22.9787 39.4557 23.072 39.0397 23.072ZM39.0397 22.456C39.3011 22.456 39.5464 22.3947 39.7757 22.272C40.0051 22.144 40.1891 21.9547 40.3277 21.704C40.4717 21.4533 40.5437 21.152 40.5437 20.8C40.5437 20.448 40.4744 20.1493 40.3357 19.904C40.1971 19.6533 40.0157 19.4667 39.7917 19.344C39.5677 19.2213 39.3251 19.16 39.0637 19.16C38.7971 19.16 38.5517 19.2213 38.3277 19.344C38.1091 19.4667 37.9331 19.6533 37.7997 19.904C37.6664 20.1493 37.5997 20.448 37.5997 20.8C37.5997 21.1573 37.6637 21.4613 37.7917 21.712C37.9251 21.9573 38.1011 22.144 38.3197 22.272C38.5384 22.3947 38.7784 22.456 39.0397 22.456ZM44.3557 20.208C44.3557 19.664 44.4784 19.176 44.7237 18.744C44.9691 18.3067 45.3024 17.9653 45.7237 17.72C46.1504 17.4747 46.6224 17.352 47.1397 17.352C47.7477 17.352 48.2784 17.4987 48.7317 17.792C49.1851 18.0853 49.5157 18.5013 49.7237 19.04H48.8517C48.6971 18.7147 48.4731 18.464 48.1797 18.288C47.8917 18.1067 47.5451 18.016 47.1397 18.016C46.7504 18.016 46.4011 18.1067 46.0917 18.288C45.7824 18.464 45.5397 18.72 45.3637 19.056C45.1877 19.3867 45.0997 19.7707 45.0997 20.208C45.0997 20.6453 45.1877 21.0293 45.3637 21.36C45.5397 21.6907 45.7824 21.9467 46.0917 22.128C46.4011 22.304 46.7504 22.392 47.1397 22.392C47.5451 22.392 47.8917 22.304 48.1797 22.128C48.4731 21.952 48.6971 21.7013 48.8517 21.376H49.7237C49.5157 21.9093 49.1851 22.3227 48.7317 22.616C48.2784 22.904 47.7477 23.048 47.1397 23.048C46.6224 23.048 46.1504 22.928 45.7237 22.688C45.3024 22.4427 44.9691 22.104 44.7237 21.672C44.4784 21.24 44.3557 20.752 44.3557 20.208ZM52.7194 23.072C52.3087 23.072 51.9354 22.9787 51.5994 22.792C51.2687 22.6053 51.0074 22.3413 50.8154 22C50.6287 21.6533 50.5354 21.2533 50.5354 20.8C50.5354 20.352 50.6314 19.9573 50.8234 19.616C51.0207 19.2693 51.2874 19.0053 51.6234 18.824C51.9594 18.6373 52.3354 18.544 52.7514 18.544C53.1674 18.544 53.5434 18.6373 53.8794 18.824C54.2154 19.0053 54.4794 19.2667 54.6714 19.608C54.8687 19.9493 54.9674 20.3467 54.9674 20.8C54.9674 21.2533 54.8661 21.6533 54.6634 22C54.4661 22.3413 54.1967 22.6053 53.8554 22.792C53.5141 22.9787 53.1354 23.072 52.7194 23.072ZM52.7194 22.456C52.9807 22.456 53.2261 22.3947 53.4554 22.272C53.6847 22.144 53.8687 21.9547 54.0074 21.704C54.1514 21.4533 54.2234 21.152 54.2234 20.8C54.2234 20.448 54.1541 20.1493 54.0154 19.904C53.8767 19.6533 53.6954 19.4667 53.4714 19.344C53.2474 19.2213 53.0047 19.16 52.7434 19.16C52.4767 19.16 52.2314 19.2213 52.0074 19.344C51.7887 19.4667 51.6127 19.6533 51.4794 19.904C51.3461 20.1493 51.2794 20.448 51.2794 20.8C51.2794 21.1573 51.3434 21.4613 51.4714 21.712C51.6047 21.9573 51.7807 22.144 51.9994 22.272C52.2181 22.3947 52.4581 22.456 52.7194 22.456ZM61.1966 18.536C61.5379 18.536 61.8419 18.608 62.1086 18.752C62.3753 18.8907 62.5859 19.1013 62.7406 19.384C62.8953 19.6667 62.9726 20.0107 62.9726 20.416V23H62.2526V20.52C62.2526 20.0827 62.1433 19.7493 61.9246 19.52C61.7113 19.2853 61.4206 19.168 61.0526 19.168C60.6739 19.168 60.3726 19.2907 60.1486 19.536C59.9246 19.776 59.8126 20.1253 59.8126 20.584V23H59.0926V20.52C59.0926 20.0827 58.9833 19.7493 58.7646 19.52C58.5513 19.2853 58.2606 19.168 57.8926 19.168C57.5139 19.168 57.2126 19.2907 56.9886 19.536C56.7646 19.776 56.6526 20.1253 56.6526 20.584V23H55.9246V18.616H56.6526V19.248C56.7966 19.0187 56.9886 18.8427 57.2286 18.72C57.4739 18.5973 57.7433 18.536 58.0366 18.536C58.4046 18.536 58.7299 18.6187 59.0126 18.784C59.2953 18.9493 59.5059 19.192 59.6446 19.512C59.7673 19.2027 59.9699 18.9627 60.2526 18.792C60.5353 18.6213 60.8499 18.536 61.1966 18.536ZM64.8948 19.424C65.0388 19.1733 65.2521 18.9653 65.5348 18.8C65.8228 18.6293 66.1561 18.544 66.5348 18.544C66.9241 18.544 67.2761 18.6373 67.5908 18.824C67.9108 19.0107 68.1614 19.2747 68.3428 19.616C68.5241 19.952 68.6148 20.344 68.6148 20.792C68.6148 21.2347 68.5241 21.6293 68.3428 21.976C68.1614 22.3227 67.9108 22.592 67.5908 22.784C67.2761 22.976 66.9241 23.072 66.5348 23.072C66.1614 23.072 65.8308 22.9893 65.5428 22.824C65.2601 22.6533 65.0441 22.4427 64.8948 22.192V25.08H64.1668V18.616H64.8948V19.424ZM67.8708 20.792C67.8708 20.4613 67.8041 20.1733 67.6708 19.928C67.5374 19.6827 67.3561 19.496 67.1268 19.368C66.9028 19.24 66.6548 19.176 66.3828 19.176C66.1161 19.176 65.8681 19.2427 65.6388 19.376C65.4148 19.504 65.2334 19.6933 65.0948 19.944C64.9614 20.1893 64.8948 20.4747 64.8948 20.8C64.8948 21.1307 64.9614 21.4213 65.0948 21.672C65.2334 21.9173 65.4148 22.1067 65.6388 22.24C65.8681 22.368 66.1161 22.432 66.3828 22.432C66.6548 22.432 66.9028 22.368 67.1268 22.24C67.3561 22.1067 67.5374 21.9173 67.6708 21.672C67.8041 21.4213 67.8708 21.128 67.8708 20.792ZM69.301 20.792C69.301 20.344 69.3917 19.952 69.573 19.616C69.7544 19.2747 70.0024 19.0107 70.317 18.824C70.637 18.6373 70.9917 18.544 71.381 18.544C71.765 18.544 72.0984 18.6267 72.381 18.792C72.6637 18.9573 72.8744 19.1653 73.013 19.416V18.616H73.749V23H73.013V22.184C72.869 22.44 72.653 22.6533 72.365 22.824C72.0824 22.9893 71.7517 23.072 71.373 23.072C70.9837 23.072 70.6317 22.976 70.317 22.784C70.0024 22.592 69.7544 22.3227 69.573 21.976C69.3917 21.6293 69.301 21.2347 69.301 20.792ZM73.013 20.8C73.013 20.4693 72.9464 20.1813 72.813 19.936C72.6797 19.6907 72.4984 19.504 72.269 19.376C72.045 19.2427 71.797 19.176 71.525 19.176C71.253 19.176 71.005 19.24 70.781 19.368C70.557 19.496 70.3784 19.6827 70.245 19.928C70.1117 20.1733 70.045 20.4613 70.045 20.792C70.045 21.128 70.1117 21.4213 70.245 21.672C70.3784 21.9173 70.557 22.1067 70.781 22.24C71.005 22.368 71.253 22.432 71.525 22.432C71.797 22.432 72.045 22.368 72.269 22.24C72.4984 22.1067 72.6797 21.9173 72.813 21.672C72.9464 21.4213 73.013 21.1307 73.013 20.8ZM77.1153 18.536C77.6486 18.536 78.0806 18.6987 78.4113 19.024C78.7419 19.344 78.9073 19.808 78.9073 20.416V23H78.1873V20.52C78.1873 20.0827 78.0779 19.7493 77.8593 19.52C77.6406 19.2853 77.3419 19.168 76.9633 19.168C76.5793 19.168 76.2726 19.288 76.0433 19.528C75.8193 19.768 75.7073 20.1173 75.7073 20.576V23H74.9793V18.616H75.7073V19.24C75.8513 19.016 76.0459 18.8427 76.2913 18.72C76.5419 18.5973 76.8166 18.536 77.1153 18.536ZM80.4725 17.904C80.3338 17.904 80.2165 17.856 80.1205 17.76C80.0245 17.664 79.9765 17.5467 79.9765 17.408C79.9765 17.2693 80.0245 17.152 80.1205 17.056C80.2165 16.96 80.3338 16.912 80.4725 16.912C80.6058 16.912 80.7178 16.96 80.8085 17.056C80.9045 17.152 80.9525 17.2693 80.9525 17.408C80.9525 17.5467 80.9045 17.664 80.8085 17.76C80.7178 17.856 80.6058 17.904 80.4725 17.904ZM80.8245 18.616V23H80.0965V18.616H80.8245ZM86.0652 20.624C86.0652 20.7573 86.0572 20.9013 86.0412 21.056H82.5372C82.5586 21.488 82.7026 21.8293 82.9692 22.08C83.2412 22.3307 83.5719 22.456 83.9612 22.456C84.2759 22.456 84.5372 22.384 84.7452 22.24C84.9586 22.0907 85.1079 21.8933 85.1932 21.648H85.9772C85.8599 22.0693 85.6252 22.4133 85.2732 22.68C84.9212 22.9413 84.4839 23.072 83.9612 23.072C83.5452 23.072 83.1719 22.9787 82.8412 22.792C82.5159 22.6053 82.2599 22.3413 82.0732 22C81.8866 21.6533 81.7932 21.2533 81.7932 20.8C81.7932 20.3467 81.8839 19.9493 82.0652 19.608C82.2466 19.2667 82.4999 19.0053 82.8252 18.824C83.1559 18.6373 83.5346 18.544 83.9612 18.544C84.3772 18.544 84.7426 18.6347 85.0572 18.816C85.3772 18.9973 85.6252 19.2453 85.8012 19.56C85.9772 19.8747 86.0652 20.2293 86.0652 20.624ZM85.3132 20.528C85.3132 20.24 85.2519 19.9947 85.1292 19.792C85.0066 19.584 84.8386 19.4267 84.6252 19.32C84.4172 19.2133 84.1852 19.16 83.9292 19.16C83.5559 19.16 83.2386 19.2827 82.9772 19.528C82.7159 19.768 82.5719 20.1013 82.5452 20.528H85.3132ZM88.5702 23.072C88.2342 23.072 87.9328 23.016 87.6662 22.904C87.4048 22.7867 87.1968 22.6267 87.0422 22.424C86.8875 22.216 86.8022 21.9787 86.7862 21.712H87.5382C87.5595 21.9413 87.6608 22.128 87.8422 22.272C88.0288 22.416 88.2715 22.488 88.5702 22.488C88.8528 22.488 89.0715 22.4267 89.2262 22.304C89.3862 22.176 89.4662 22.0107 89.4662 21.808C89.4662 21.616 89.3808 21.4747 89.2102 21.384C89.0395 21.288 88.7755 21.1947 88.4182 21.104C88.0928 21.0187 87.8288 20.9333 87.6262 20.848C87.4235 20.7627 87.2502 20.6373 87.1062 20.472C86.9622 20.3013 86.8902 20.0773 86.8902 19.8C86.8902 19.5707 86.9542 19.36 87.0822 19.168C87.2102 18.976 87.3942 18.824 87.6342 18.712C87.8795 18.6 88.1622 18.544 88.4822 18.544C88.9675 18.544 89.3595 18.6667 89.6582 18.912C89.9568 19.1573 90.1168 19.4933 90.1382 19.92H89.4102C89.3942 19.68 89.3008 19.488 89.1302 19.344C88.9648 19.2 88.7408 19.128 88.4582 19.128C88.1915 19.128 87.9808 19.1867 87.8262 19.304C87.6768 19.4213 87.6022 19.576 87.6022 19.768C87.6022 19.9173 87.6502 20.04 87.7462 20.136C87.8422 20.2267 87.9595 20.2987 88.0982 20.352C88.2368 20.4 88.4342 20.4613 88.6902 20.536C89.0102 20.6213 89.2662 20.7067 89.4582 20.792C89.6502 20.872 89.8155 20.992 89.9542 21.152C90.0928 21.312 90.1622 21.5253 90.1622 21.792C90.1622 22.0373 90.0955 22.256 89.9622 22.448C89.8342 22.64 89.6502 22.792 89.4102 22.904C89.1702 23.016 88.8902 23.072 88.5702 23.072Z" fill="#323846"/>
</svg>
