<svg width="15" height="15" viewBox="0 0 15 15" fill="none" xmlns="http://www.w3.org/2000/svg">
<path d="M14.9794 5.66853C14.9302 5.51053 14.8009 5.39768 14.6438 5.37188L9.96426 4.67541L7.85844 0.241831C7.78763 0.0935082 7.64293 0 7.48592 0C7.32891 0 7.18421 0.0935082 7.1134 0.245056L5.0353 4.69153L0.355708 5.42025C0.198696 5.44604 0.0693914 5.5589 0.0201325 5.7169C-0.0291263 5.87489 0.0139752 6.04901 0.127886 6.16187L3.52367 9.60877L2.7386 14.4905C2.7109 14.655 2.77555 14.8194 2.90485 14.9162C2.97566 14.971 3.06186 15 3.14807 15C3.2158 15 3.28045 14.9839 3.34202 14.9484L7.51979 12.6301L11.7099 14.9226C11.7714 14.9549 11.8361 14.971 11.9007 14.971C12.1286 14.971 12.3164 14.7743 12.3164 14.5357C12.3164 14.5002 12.3133 14.468 12.304 14.4357L11.4944 9.58298L14.8686 6.11672C14.9887 6.00064 15.0287 5.82653 14.9794 5.66853Z" fill="#FBBC05"/>
</svg>
