<svg id="youtube-logo" xmlns="http://www.w3.org/2000/svg" width="27.605" height="19.915" viewBox="0 0 27.605 19.915">
  <path id="Path_99" data-name="Path 99" d="M22.786,29.2H4.818A4.825,4.825,0,0,0,0,34.023V44.3a4.824,4.824,0,0,0,4.818,4.82H22.786A4.824,4.824,0,0,0,27.6,44.3V34.023A4.825,4.825,0,0,0,22.786,29.2ZM25.63,44.3a2.847,2.847,0,0,1-2.843,2.845H4.818A2.847,2.847,0,0,1,1.975,44.3V34.023a2.847,2.847,0,0,1,2.844-2.845H22.786a2.847,2.847,0,0,1,2.843,2.845V44.3Z" transform="translate(0 -29.203)" fill="#292929"/>
  <path id="Path_100" data-name="Path 100" d="M86.721,65.67,79.4,60.845a.987.987,0,0,0-1.531.824v9.651a.987.987,0,0,0,1.531.824l7.319-4.826a.987.987,0,0,0,0-1.649Zm-6.876,3.817V63.5l4.538,2.992Z" transform="translate(-67.619 -56.538)" fill="#292929"/>
</svg>
