<svg width="16" height="16" viewBox="0 0 16 16" fill="none" xmlns="http://www.w3.org/2000/svg">
<path d="M0.558594 7.66481C0.558594 3.70427 3.7632 0.5 7.7234 0.5C11.6839 0.5 14.8882 3.70463 14.8882 7.66481C14.8882 11.6253 11.6836 14.8296 7.7234 14.8296C3.76287 14.8296 0.558594 11.625 0.558594 7.66481ZM0.580558 7.66481C0.580558 11.6038 3.78441 14.8077 7.7234 14.8077C11.6624 14.8077 14.8662 11.6038 14.8662 7.66481C14.8662 3.72582 11.6624 0.521965 7.7234 0.521965C3.78441 0.521965 0.580558 3.72578 0.580558 7.66481Z" fill="#3AA0EB" stroke="#3AA0EB"/>
<path d="M7.13332 7.51158V8.01158H7.63332H9.30371C9.30615 8.01158 9.30721 8.01197 9.30783 8.01224C9.30878 8.01264 9.31011 8.01344 9.31147 8.01479C9.31282 8.01614 9.31362 8.01747 9.31402 8.01842C9.31428 8.01904 9.31468 8.0201 9.31468 8.02255C9.31468 8.02498 9.31428 8.02604 9.31402 8.02666C9.31362 8.02762 9.31281 8.02895 9.31145 8.03032C9.31009 8.03168 9.30875 8.03248 9.30779 8.03288C9.30717 8.03315 9.30611 8.03354 9.30368 8.03354H7.12232C7.11989 8.03354 7.11883 8.03315 7.11821 8.03289C7.11725 8.03248 7.11592 8.03168 7.11455 8.03032C7.11319 8.02896 7.11239 8.02762 7.11199 8.02666C7.11172 8.02604 7.11133 8.02498 7.11133 8.02255V4.66554C7.11133 4.66309 7.11173 4.66203 7.11199 4.66141C7.11239 4.66045 7.11319 4.65912 7.11455 4.65776C7.1159 4.6564 7.11724 4.6556 7.11819 4.6552C7.11881 4.65494 7.11988 4.65454 7.12232 4.65454C7.12476 4.65454 7.12582 4.65494 7.12644 4.6552C7.12739 4.6556 7.12873 4.6564 7.13009 4.65776C7.13146 4.65913 7.13226 4.66047 7.13266 4.66142C7.13293 4.66205 7.13332 4.66311 7.13332 4.66554V7.51158Z" fill="#3AA0EB" stroke="#3AA0EB"/>
</svg>
